Coordinates
version=1
nRows=21
nColumns=12
inDegrees=yes

Units are S.I. units (second, meters, Newtons, ...)
Angles are in degrees

endheader
time	SC_y	SC_z	SC_x	AC_y	AC_z	AC_x	GH_y	GH_z	GH_yy	EL_x	PS_y
       0.0              -55.08          18.72          58.76          42.81         -19.53          3.313         -157.6          68.85          105.4          96.79          28.49
   0.01618              -55.08          18.72          58.76          42.82         -19.52          3.311         -157.6          68.85          105.3          96.78           28.5
   0.03235              -55.08          18.71          58.75          42.82         -19.52          3.309         -157.6          68.85          105.3          96.77          28.51
   0.04853              -55.08          18.71          58.75          42.82         -19.51          3.307         -157.6          68.85          105.3          96.76          28.52
    0.0647              -55.07          18.71          58.74          42.83         -19.51          3.304         -157.6          68.85          105.2          96.75          28.54
   0.08088              -55.07          18.71          58.73          42.83          -19.5          3.302         -157.5          68.85          105.2          96.74          28.55
   0.09705              -55.06          18.71          58.72          42.83          -19.5          3.299         -157.5          68.86          105.1          96.73          28.56
    0.1132              -55.06           18.7          58.72          42.84         -19.49          3.296         -157.5          68.86          105.1          96.72          28.57
    0.1294              -55.06           18.7          58.71          42.84         -19.49          3.293         -157.5          68.86          105.0           96.7          28.59
    0.1456              -55.05           18.7           58.7          42.85         -19.48          3.289         -157.4          68.86          105.0          96.69          28.61
    0.1618              -55.05           18.7          58.69          42.85         -19.47          3.286         -157.4          68.86          104.9          96.67          28.62
    0.1779              -55.04          18.69          58.68          42.86         -19.47          3.282         -157.4          68.86          104.9          96.66          28.64
    0.1941              -55.03          18.69          58.67          42.86         -19.46          3.278         -157.3          68.86          104.8          96.64          28.66
    0.2103              -55.03          18.69          58.65          42.87         -19.45          3.273         -157.3          68.86          104.7          96.62          28.68
    0.2265              -55.02          18.68          58.64          42.88         -19.44          3.268         -157.2          68.86          104.6           96.6           28.7
    0.2426              -55.01          18.68          58.62          42.88         -19.43          3.263         -157.2          68.87          104.6          96.58          28.73
    0.2588               -55.0          18.68          58.61          42.89         -19.42          3.257         -157.1          68.87          104.5          96.55          28.76
     0.275               -55.0          18.67          58.59           42.9          -19.4           3.25         -157.1          68.87          104.4          96.53          28.79
    0.2912              -54.99          18.67          58.57          42.91         -19.39          3.243         -157.0          68.87          104.3           96.5          28.82
    0.3073              -54.97          18.66          58.55          42.92         -19.38          3.236         -156.9          68.87          104.1          96.47          28.85
    0.3235              -54.96          18.66          58.53          42.93         -19.36          3.227         -156.8          68.87          104.0          96.43          28.89
